# xmcd
#
# Track frame offsets:
#	150
#	29517
#	45740
#	65299
#	87451
#	112755
#	131137
#	151419
#	173363
#	197445
#	215247
#	229767
#
# Disc length: 3317 seconds
#
# Revision: 1
# Processed by: cddbd v1.5.2PL0 Copyright (c) Steve Scherf et al.
# Submitted via: audiograbber 1.83.01
#
DISCID=9e0cf30c
DTITLE=Aynsley Lister - Home
DYEAR=2013
DGENRE=Blues
TTITLE0=Home
TTITLE1=Broke
TTITLE2=Insatiable
TTITLE3=Inside Out
TTITLE4=Free
TTITLE5=Sugar
TTITLE6=You Make It Real
TTITLE7=Feeling Good
TTITLE8=Possession
TTITLE9=Hyde 2612
TTITLE10=Impossible
TTITLE11=Straight Talkin' Woman
EXTD=
EXTT0=
EXTT1=
EXTT2=
EXTT3=
EXTT4=
EXTT5=
EXTT6=
EXTT7=
EXTT8=
EXTT9=
EXTT10=
EXTT11=
PLAYORDER=
